<?xml version="1.0" encoding="UTF-8"?><svg xmlns="http://www.w3.org/2000/svg" xmlns:xlink="http://www.w3.org/1999/xlink" viewBox="0 0 32 32" version="1.1"><path d="M16 4c-2.898 0-5.55 1.04-7.625 2.75A11.83 11.83 0 0 0 6.75 8.375a11.944 11.944 0 0 0 0 15.25 11.83 11.83 0 0 0 1.625 1.625 11.944 11.944 0 0 0 15.25 0 11.83 11.83 0 0 0 1.625-1.625 11.944 11.944 0 0 0 0-15.25 11.83 11.83 0 0 0-1.625-1.625A11.944 11.944 0 0 0 16 4zm4.344 5.531c.172.008.394.125.562.531.332.81 2.688 5.844 2.688 5.844s.601 1.5 1.75 1.5c.23 0 .406-.058.562-.093a9.902 9.902 0 0 1-.656 2.5 5.33 5.33 0 0 1-1.156.125c-1.637 0-2.563-1.25-2.563-1.25s-.765 3.156-4.5 3.156c-.715 0-1.843-.282-1.843-.282l1.937 4.375c-.367.04-.746.063-1.125.063-1.207 0-2.367-.203-3.438-.594L7.72 12.72s-.383-.61.187-.75c.57-.14 2.813-.625 2.813-.625s.699-.387.937.281c.239.668 2.188 5.625 2.188 5.625s.898 2.125 3.375 2.125c2.476 0 3.07-2.234 2.968-2.5-.605-1.582-2.562-6.156-2.562-6.156s-.313-.574.406-.719c.707-.14 2-.375 2-.375s.14-.102.313-.094z" id="surface1"/><metadata><rdf:RDF xmlns:rdf="http://www.w3.org/1999/02/22-rdf-syntax-ns#" xmlns:rdfs="http://www.w3.org/2000/01/rdf-schema#" xmlns:dc="http://purl.org/dc/elements/1.1/"><rdf:Description about="https://iconscout.com/legal#licenses" dc:title="utorrent" dc:description="utorrent" dc:publisher="Iconscout" dc:date="2017-12-30" dc:format="image/svg+xml" dc:language="en"><dc:creator><rdf:Bag><rdf:li>Icons8</rdf:li></rdf:Bag></dc:creator></rdf:Description></rdf:RDF></metadata></svg>